<svg id="container" width="1111.4207763671875" xmlns="http://www.w3.org/2000/svg" class="flowchart" height="94" viewBox="0 0 1111.4207763671875 94" role="graphics-document document" aria-roledescription="flowchart-v2"><style>#container{font-size:16px;fill:#333;}@keyframes edge-animation-frame{from{stroke-dashoffset:0;}}@keyframes dash{to{stroke-dashoffset:0;}}#container .edge-animation-slow{stroke-dasharray:9,5!important;stroke-dashoffset:900;animation:dash 50s linear infinite;stroke-linecap:round;}#container .edge-animation-fast{stroke-dasharray:9,5!important;stroke-dashoffset:900;animation:dash 20s linear infinite;stroke-linecap:round;}#container .error-icon{fill:hsl(220.5882352941, 100%, 98.3333333333%);}#container .error-text{fill:rgb(8.5000000002, 5.7500000001, 0);stroke:rgb(8.5000000002, 5.7500000001, 0);}#container .edge-thickness-normal{stroke-width:1px;}#container .edge-thickness-thick{stroke-width:3.5px;}#container .edge-pattern-solid{stroke-dasharray:0;}#container .edge-thickness-invisible{stroke-width:0;fill:none;}#container .edge-pattern-dashed{stroke-dasharray:3;}#container .edge-pattern-dotted{stroke-dasharray:2;}#container .marker{fill:#475569;stroke:#475569;}#container .marker.cross{stroke:#475569;}#container svg{font-size:16px;}#container p{margin:0;}#container .label{color:#333;}#container .cluster-label text{fill:rgb(8.5000000002, 5.7500000001, 0);}#container .cluster-label span{color:rgb(8.5000000002, 5.7500000001, 0);}#container .cluster-label span p{background-color:transparent;}#container .label text,#container span{fill:#333;color:#333;}#container .node rect,#container .node circle,#container .node ellipse,#container .node polygon,#container .node path{fill:#fff4dd;stroke:hsl(40.5882352941, 60%, 83.3333333333%);stroke-width:1px;}#container .rough-node .label text,#container .node .label text,#container .image-shape .label,#container .icon-shape .label{text-anchor:middle;}#container .node .katex path{fill:#000;stroke:#000;stroke-width:1px;}#container .rough-node .label,#container .node .label,#container .image-shape .label,#container .icon-shape .label{text-align:center;}#container .node.clickable{cursor:pointer;}#container .root .anchor path{fill:#475569!important;stroke-width:0;stroke:#475569;}#container .arrowheadPath{fill:#0b0b0b;}#container .edgePath .path{stroke:#475569;stroke-width:1px;}#container .flowchart-link{stroke:#475569;fill:none;}#container .edgeLabel{background-color:hsl(-79.4117647059, 100%, 93.3333333333%);text-align:center;}#container .edgeLabel p{background-color:hsl(-79.4117647059, 100%, 93.3333333333%);}#container .edgeLabel rect{opacity:0.5;background-color:hsl(-79.4117647059, 100%, 93.3333333333%);fill:hsl(-79.4117647059, 100%, 93.3333333333%);}#container .labelBkg{background-color:rgba(243.9999999999, 220.9999999998, 255, 0.5);}#container .cluster rect{fill:#f8fafc;stroke:#cbd5e1;stroke-width:1px;}#container .cluster text{fill:rgb(8.5000000002, 5.7500000001, 0);}#container .cluster span{color:rgb(8.5000000002, 5.7500000001, 0);}#container div.mermaidTooltip{position:absolute;text-align:center;max-width:200px;padding:2px;font-size:12px;background:hsl(220.5882352941, 100%, 98.3333333333%);border:1px solid hsl(220.5882352941, 60%, 88.3333333333%);border-radius:2px;pointer-events:none;z-index:100;}#container .flowchartTitleText{text-anchor:middle;font-size:18px;fill:#333;}#container rect.text{fill:none;stroke-width:0;}#container .icon-shape,#container .image-shape{background-color:hsl(-79.4117647059, 100%, 93.3333333333%);text-align:center;}#container .icon-shape p,#container .image-shape p{background-color:hsl(-79.4117647059, 100%, 93.3333333333%);padding:2px;}#container .icon-shape .label rect,#container .image-shape .label rect{opacity:0.5;background-color:hsl(-79.4117647059, 100%, 93.3333333333%);fill:hsl(-79.4117647059, 100%, 93.3333333333%);}#container .label-icon{display:inline-block;height:1em;overflow:visible;vertical-align:-0.125em;}#container .node .label-icon path{fill:currentColor;stroke:revert;stroke-width:revert;}#container .node .neo-node{stroke:hsl(40.5882352941, 60%, 83.3333333333%);}#container [data-look="neo"].node rect,#container [data-look="neo"].cluster rect,#container [data-look="neo"].node polygon{stroke:url(#container-gradient);filter:drop-shadow( 1px 2px 2px rgba(185,185,185,1));}#container [data-look="neo"].node path{stroke:url(#container-gradient);stroke-width:1px;}#container [data-look="neo"].node .outer-path{filter:drop-shadow( 1px 2px 2px rgba(185,185,185,1));}#container [data-look="neo"].node .neo-line path{stroke:hsl(40.5882352941, 60%, 83.3333333333%);filter:none;}#container [data-look="neo"].node circle{stroke:url(#container-gradient);filter:drop-shadow( 1px 2px 2px rgba(185,185,185,1));}#container [data-look="neo"].node circle .state-start{fill:#000000;}#container [data-look="neo"].icon-shape .icon{fill:url(#container-gradient);filter:drop-shadow( 1px 2px 2px rgba(185,185,185,1));}#container [data-look="neo"].icon-shape .icon-neo path{stroke:url(#container-gradient);filter:drop-shadow( 1px 2px 2px rgba(185,185,185,1));}#container :root{--mermaid-font-family:"trebuchet ms",verdana,arial,sans-serif;}#container .client&gt;*{fill:rgb(207, 250, 254)!important;stroke:rgb(8, 145, 178)!important;color:rgb(21, 94, 117)!important;stroke-width:1.5px!important;}#container .client span{fill:rgb(207, 250, 254)!important;stroke:rgb(8, 145, 178)!important;color:rgb(21, 94, 117)!important;stroke-width:1.5px!important;}#container .client tspan{fill:rgb(21, 94, 117)!important;}#container .edge&gt;*{fill:rgb(204, 251, 241)!important;stroke:rgb(13, 148, 136)!important;color:rgb(17, 94, 89)!important;stroke-width:1.5px!important;}#container .edge span{fill:rgb(204, 251, 241)!important;stroke:rgb(13, 148, 136)!important;color:rgb(17, 94, 89)!important;stroke-width:1.5px!important;}#container .edge tspan{fill:rgb(17, 94, 89)!important;}#container .app&gt;*{fill:rgb(209, 250, 229)!important;stroke:rgb(5, 150, 105)!important;color:rgb(6, 95, 70)!important;stroke-width:1.5px!important;}#container .app span{fill:rgb(209, 250, 229)!important;stroke:rgb(5, 150, 105)!important;color:rgb(6, 95, 70)!important;stroke-width:1.5px!important;}#container .app tspan{fill:rgb(6, 95, 70)!important;}#container .data&gt;*{fill:rgb(254, 243, 199)!important;stroke:rgb(217, 119, 6)!important;color:rgb(146, 64, 14)!important;stroke-width:1.5px!important;}#container .data span{fill:rgb(254, 243, 199)!important;stroke:rgb(217, 119, 6)!important;color:rgb(146, 64, 14)!important;stroke-width:1.5px!important;}#container .data tspan{fill:rgb(146, 64, 14)!important;}#container .queue&gt;*{fill:rgb(255, 228, 230)!important;stroke:rgb(225, 29, 72)!important;color:rgb(159, 18, 57)!important;stroke-width:1.5px!important;}#container .queue span{fill:rgb(255, 228, 230)!important;stroke:rgb(225, 29, 72)!important;color:rgb(159, 18, 57)!important;stroke-width:1.5px!important;}#container .queue tspan{fill:rgb(159, 18, 57)!important;}#container .ext&gt;*{fill:rgb(226, 232, 240)!important;stroke:rgb(71, 85, 105)!important;color:rgb(30, 41, 59)!important;stroke-width:1.5px!important;}#container .ext span{fill:rgb(226, 232, 240)!important;stroke:rgb(71, 85, 105)!important;color:rgb(30, 41, 59)!important;stroke-width:1.5px!important;}#container .ext tspan{fill:rgb(30, 41, 59)!important;}#container .step&gt;*{fill:rgb(204, 251, 241)!important;stroke:rgb(13, 148, 136)!important;color:rgb(17, 94, 89)!important;stroke-width:1.5px!important;}#container .step span{fill:rgb(204, 251, 241)!important;stroke:rgb(13, 148, 136)!important;color:rgb(17, 94, 89)!important;stroke-width:1.5px!important;}#container .step tspan{fill:rgb(17, 94, 89)!important;}</style><g><marker id="container_flowchart-v2-pointEnd" class="marker flowchart-v2" viewBox="0 0 10 10" refX="5" refY="5" markerUnits="userSpaceOnUse" markerWidth="8" markerHeight="8" orient="auto"><path d="M 0 0 L 10 5 L 0 10 z" class="arrowMarkerPath" style="stroke-width: 1; stroke-dasharray: 1, 0;"></path></marker><marker id="container_flowchart-v2-pointStart" class="marker flowchart-v2" viewBox="0 0 10 10" refX="4.5" refY="5" markerUnits="userSpaceOnUse" markerWidth="8" markerHeight="8" orient="auto"><path d="M 0 5 L 10 10 L 10 0 z" class="arrowMarkerPath" style="stroke-width: 1; stroke-dasharray: 1, 0;"></path></marker><marker id="container_flowchart-v2-pointEnd-margin" class="marker flowchart-v2" viewBox="0 0 11.5 14" refX="11.5" refY="7" markerUnits="userSpaceOnUse" markerWidth="10.5" markerHeight="14" orient="auto"><path d="M 0 0 L 11.5 7 L 0 14 z" class="arrowMarkerPath" style="stroke-width: 0; stroke-dasharray: 1, 0;"></path></marker><marker id="container_flowchart-v2-pointStart-margin" class="marker flowchart-v2" viewBox="0 0 11.5 14" refX="1" refY="7" markerUnits="userSpaceOnUse" markerWidth="11.5" markerHeight="14" orient="auto"><polygon points="0,7 11.5,14 11.5,0" class="arrowMarkerPath" style="stroke-width: 0; stroke-dasharray: 1, 0;"></polygon></marker><marker id="container_flowchart-v2-circleEnd" class="marker flowchart-v2" viewBox="0 0 10 10" refX="11" refY="5" markerUnits="userSpaceOnUse" markerWidth="11" markerHeight="11" orient="auto"><circle cx="5" cy="5" r="5" class="arrowMarkerPath" style="stroke-width: 1; stroke-dasharray: 1, 0;"></circle></marker><marker id="container_flowchart-v2-circleStart" class="marker flowchart-v2" viewBox="0 0 10 10" refX="-1" refY="5" markerUnits="userSpaceOnUse" markerWidth="11" markerHeight="11" orient="auto"><circle cx="5" cy="5" r="5" class="arrowMarkerPath" style="stroke-width: 1; stroke-dasharray: 1, 0;"></circle></marker><marker id="container_flowchart-v2-circleEnd-margin" class="marker flowchart-v2" viewBox="0 0 10 10" refY="5" refX="12.25" markerUnits="userSpaceOnUse" markerWidth="14" markerHeight="14" orient="auto"><circle cx="5" cy="5" r="5" class="arrowMarkerPath" style="stroke-width: 0; stroke-dasharray: 1, 0;"></circle></marker><marker id="container_flowchart-v2-circleStart-margin" class="marker flowchart-v2" viewBox="0 0 10 10" refX="-2" refY="5" markerUnits="userSpaceOnUse" markerWidth="14" markerHeight="14" orient="auto"><circle cx="5" cy="5" r="5" class="arrowMarkerPath" style="stroke-width: 0; stroke-dasharray: 1, 0;"></circle></marker><marker id="container_flowchart-v2-crossEnd" class="marker cross flowchart-v2" viewBox="0 0 11 11" refX="12" refY="5.2" markerUnits="userSpaceOnUse" markerWidth="11" markerHeight="11" orient="auto"><path d="M 1,1 l 9,9 M 10,1 l -9,9" class="arrowMarkerPath" style="stroke-width: 2; stroke-dasharray: 1, 0;"></path></marker><marker id="container_flowchart-v2-crossStart" class="marker cross flowchart-v2" viewBox="0 0 11 11" refX="-1" refY="5.2" markerUnits="userSpaceOnUse" markerWidth="11" markerHeight="11" orient="auto"><path d="M 1,1 l 9,9 M 10,1 l -9,9" class="arrowMarkerPath" style="stroke-width: 2; stroke-dasharray: 1, 0;"></path></marker><marker id="container_flowchart-v2-crossEnd-margin" class="marker cross flowchart-v2" viewBox="0 0 15 15" refX="17.7" refY="7.5" markerUnits="userSpaceOnUse" markerWidth="12" markerHeight="12" orient="auto"><path d="M 1,1 L 14,14 M 1,14 L 14,1" class="arrowMarkerPath" style="stroke-width: 2.5;"></path></marker><marker id="container_flowchart-v2-crossStart-margin" class="marker cross flowchart-v2" viewBox="0 0 15 15" refX="-3.5" refY="7.5" markerUnits="userSpaceOnUse" markerWidth="12" markerHeight="12" orient="auto"><path d="M 1,1 L 14,14 M 1,14 L 14,1" class="arrowMarkerPath" style="stroke-width: 2.5; stroke-dasharray: 1, 0;"></path></marker><g class="root"><g class="clusters"></g><g class="edgePaths"><path d="M156.327,47.5L160.41,47.417C164.494,47.333,172.66,47.167,180.244,47.083C187.827,47,194.827,47,198.327,47L201.827,47" id="container-L_in_read_0" class="edge-thickness-normal edge-pattern-solid edge-thickness-normal edge-pattern-solid flowchart-link" style=";" data-edge="true" data-et="edge" data-id="L_in_read_0" data-points="W3sieCI6MTU2LjMyNzAwNjYyMDY0MzE3LCJ5Ijo0Ny41fSx7IngiOjE4MC44MjcwMTExMDgzOTg0NCwieSI6NDd9LHsieCI6MjA1LjgyNzAxMTEwODM5ODQ0LCJ5Ijo0N31d" data-look="classic" marker-end="url(#container_flowchart-v2-pointEnd)"></path><path d="M338.983,47L343.15,47C347.317,47,355.65,47,363.317,47C370.983,47,377.983,47,381.483,47L384.983,47" id="container-L_read_parse_0" class="edge-thickness-normal edge-pattern-solid edge-thickness-normal edge-pattern-solid flowchart-link" style=";" data-edge="true" data-et="edge" data-id="L_read_parse_0" data-points="W3sieCI6MzM4Ljk4MzI2MTEwODM5ODQ0LCJ5Ijo0N30seyJ4IjozNjMuOTgzMjYxMTA4Mzk4NDQsInkiOjQ3fSx7IngiOjM4OC45ODMyNjExMDgzOTg0NCwieSI6NDd9XQ==" data-look="classic" marker-end="url(#container_flowchart-v2-pointEnd)"></path><path d="M562.593,47L566.759,47C570.926,47,579.259,47,586.926,47C594.593,47,601.593,47,605.093,47L608.593,47" id="container-L_parse_transform_0" class="edge-thickness-normal edge-pattern-solid edge-thickness-normal edge-pattern-solid flowchart-link" style=";" data-edge="true" data-et="edge" data-id="L_parse_transform_0" data-points="W3sieCI6NTYyLjU5MjYzNjEwODM5ODQsInkiOjQ3fSx7IngiOjU4Ny41OTI2MzYxMDgzOTg0LCJ5Ijo0N30seyJ4Ijo2MTIuNTkyNjM2MTA4Mzk4NCwieSI6NDd9XQ==" data-look="classic" marker-end="url(#container_flowchart-v2-pointEnd)"></path><path d="M826.249,47L830.416,47C834.582,47,842.916,47,850.582,47C858.249,47,865.249,47,868.749,47L872.249,47" id="container-L_transform_out_0" class="edge-thickness-normal edge-pattern-solid edge-thickness-normal edge-pattern-solid flowchart-link" style=";" data-edge="true" data-et="edge" data-id="L_transform_out_0" data-points="W3sieCI6ODI2LjI0ODg4NjEwODM5ODQsInkiOjQ3fSx7IngiOjg1MS4yNDg4ODYxMDgzOTg0LCJ5Ijo0N30seyJ4Ijo4NzYuMjQ4ODg2MTA4Mzk4NCwieSI6NDd9XQ==" data-look="classic" marker-end="url(#container_flowchart-v2-pointEnd)"></path></g><g class="edgeLabels"><g class="edgeLabel"><g class="label" data-id="L_in_read_0" transform="translate(0, 0)"><foreignObject width="0" height="0"><div xmlns="http://www.w3.org/1999/xhtml" class="labelBkg" style="display: table-cell; white-space: nowrap; line-height: 1.5; max-width: 200px; text-align: center;"><span class="edgeLabel"></span></div></foreignObject></g></g><g class="edgeLabel"><g class="label" data-id="L_read_parse_0" transform="translate(0, 0)"><foreignObject width="0" height="0"><div xmlns="http://www.w3.org/1999/xhtml" class="labelBkg" style="display: table-cell; white-space: nowrap; line-height: 1.5; max-width: 200px; text-align: center;"><span class="edgeLabel"></span></div></foreignObject></g></g><g class="edgeLabel"><g class="label" data-id="L_parse_transform_0" transform="translate(0, 0)"><foreignObject width="0" height="0"><div xmlns="http://www.w3.org/1999/xhtml" class="labelBkg" style="display: table-cell; white-space: nowrap; line-height: 1.5; max-width: 200px; text-align: center;"><span class="edgeLabel"></span></div></foreignObject></g></g><g class="edgeLabel"><g class="label" data-id="L_transform_out_0" transform="translate(0, 0)"><foreignObject width="0" height="0"><div xmlns="http://www.w3.org/1999/xhtml" class="labelBkg" style="display: table-cell; white-space: nowrap; line-height: 1.5; max-width: 200px; text-align: center;"><span class="edgeLabel"></span></div></foreignObject></g></g></g><g class="nodes"><g class="node default client" id="container-flowchart-in-0" data-look="classic" transform="translate(81.91350555419922, 47)"><g class="basic label-container outer-path"><path d="M-42.4296875 -31.5 C-11.421458056704033 -31.5, 19.586771386591934 -31.5, 42.4296875 -31.5 C42.4296875 -31.5, 42.4296875 -31.5, 42.4296875 -31.5 C43.0234367472888 -31.480959617302247, 43.617185994577596 -31.461919234604498, 44.44789942939246 -31.435279871635593 C45.144180398416516 -31.368110483954226, 45.840461367440575 -31.300941096272854, 46.45781809306194 -31.241385435432253 C47.09279113361518 -31.13872791852508, 47.72776417416842 -31.036070401617906, 48.451184304093225 -30.91911344521856 C49.09111057520063 -30.773054449747473, 49.73103684630803 -30.626995454276386, 50.41980689314948 -30.469788185729428 C50.982790397354165 -30.302697636842193, 51.54577390155885 -30.13560708795496, 52.35559636774405 -29.895256030836062 C53.03393997111573 -29.645619314255754, 53.71228357448741 -29.395982597675445, 54.25059815370028 -29.197877856399685 C54.64166402929243 -29.024764593832074, 55.032729904884576 -28.85165133126446, 56.09702528220308 -28.380519338926202 C56.80162733299848 -28.012928900345393, 57.50622938379389 -27.645338461764588, 57.887290388124036 -27.44653917988677 C58.501013734738805 -27.07449648053018, 59.114737081353574 -26.702453781173592, 59.614036888132276 -26.399775304092984 C60.24589812061883 -25.959016261142263, 60.87775935310539 -25.518257218191543, 61.2701692104733 -25.244529088840633 C61.71045113391691 -24.893415971288388, 62.15073305736053 -24.542302853736146, 62.84888195219533 -23.985547688627737 C63.39242920798411 -23.491912452392672, 63.935976463772896 -22.99827721615761, 64.34368784400982 -22.62800452807842 C64.63209770218721 -22.330197670620546, 64.92050756036458 -22.032390813162674, 65.74844440787243 -21.177478043231485 C66.02165393291345 -20.85655058905592, 66.29486345795448 -20.535623134880353, 67.05737919774293 -19.63992875855011 C67.51634525854004 -19.024956049750283, 67.97531131933717 -18.409983340950458, 68.2651135198041 -18.02167479384835 C68.52290355831173 -17.625640068382708, 68.78069359681935 -17.229605342917065, 69.3666845346684 -16.329365901781543 C69.65782549142833 -15.812415651835593, 69.94896644818824 -15.295465401889643, 70.3575656507495 -14.56995614258631 C70.67487436503203 -13.911057808059788, 70.99218307931456 -13.252159473533265, 71.23368512499809 -12.750675308355413 C71.48368895120231 -12.133161024135838, 71.73369277740652 -11.515646739916264, 71.99144279456745 -10.878999214271206 C72.19502410822201 -10.265844733821073, 72.39860542187657 -9.65269025337094, 72.62772487065482 -8.962618978877531 C72.8044861423622 -8.288551641037548, 72.98124741406956 -7.614484303197566, 73.13991673372745 -7.009409419623907 C73.27209055848144 -6.330724764459944, 73.40426438323541 -5.652040109295982, 73.52591367755518 -5.027396693551458 C73.62780434191043 -4.2371528213995955, 73.72969500626569 -3.4469089492477343, 73.78412955789975 -3.024725316091981 C73.83331897410105 -2.258560453774517, 73.88250839030236 -1.492395591457053, 73.91350331032167 -1.0096246935071378 C73.91350331032167 -0.3710223962057885, 73.91350331032167 0.26757990109556085, 73.91350331032167 1.00962469350713 C73.88310417708509 1.4831157314056598, 73.8527050438485 1.9566067693041898, 73.78412955789975 3.02472531609196 C73.68541443294681 3.7903403317206132, 73.58669930799388 4.555955347349267, 73.52591367755518 5.027396693551435 C73.40920913019355 5.626649878738617, 73.29250458283191 6.2259030639258, 73.13991673372745 7.0094094196239 C72.95300679192546 7.7221780349961024, 72.76609685012346 8.434946650368305, 72.62772487065482 8.96261897887751 C72.47816962752498 9.413055542792572, 72.32861438439512 9.863492106707636, 71.99144279456746 10.878999214271184 C71.75324712895852 11.46734711352518, 71.51505146334956 12.055695012779177, 71.23368512499809 12.750675308355405 C71.01716098404273 13.20029231992364, 70.80063684308739 13.649909331491877, 70.3575656507495 14.569956142586303 C70.06410477567053 15.091025642424936, 69.77064390059155 15.61209514226357, 69.36668453466841 16.329365901781536 C68.96573582205637 16.94533079415816, 68.56478710944432 17.56129568653478, 68.26511351980412 18.021674793848334 C67.82373129717072 18.613086761429397, 67.38234907453732 19.204498729010457, 67.05737919774295 19.639928758550102 C66.73497787790012 20.018639693992284, 66.41257655805728 20.397350629434467, 65.74844440787246 21.177478043231467 C65.38180594083784 21.55606236202267, 65.0151674738032 21.934646680813874, 64.34368784400982 22.628004528078414 C63.94147171683618 22.993286572721953, 63.53925558966255 23.358568617365492, 62.848881952195356 23.985547688627715 C62.40164779472966 24.342205027805846, 61.954413637263976 24.69886236698398, 61.27016921047331 25.24452908884063 C60.67673559951025 25.65848268652148, 60.08330198854719 26.072436284202333, 59.6140368881323 26.399775304092973 C59.06288606287937 26.733886173283064, 58.51173523762644 27.067997042473152, 57.88729038812404 27.446539179886766 C57.35963497704926 27.721816669865056, 56.83197956597448 27.99709415984335, 56.097025282203084 28.3805193389262 C55.52973197562393 28.631643257590756, 54.96243866904477 28.882767176255314, 54.250598153700295 29.197877856399682 C53.61892749778727 29.43033849687521, 52.98725684187425 29.662799137350735, 52.35559636774407 29.895256030836055 C51.61087979973084 30.11628399912535, 50.86616323171761 30.337311967414642, 50.41980689314951 30.46978818572942 C49.833133613064945 30.60369253350779, 49.24646033298038 30.737596881286155, 48.45118430409324 30.919113445218557 C47.892587972431265 31.009422968142413, 47.3339916407693 31.09973249106627, 46.45781809306196 31.24138543543225 C45.88256897993839 31.296879025537002, 45.30731986681483 31.352372615641755, 44.44789942939246 31.435279871635593 C44.01908100225149 31.44903124394957, 43.590262575110515 31.46278261626355, 42.42968750000001 31.5 C42.42968750000001 31.5, 42.42968750000001 31.5, 42.4296875 31.5 C24.827042725367118 31.5, 7.224397950734236 31.5, -42.42968749999999 31.5 C-42.99751496998534 31.48179087824669, -43.565342439970685 31.463581756493383, -44.44789942939244 31.435279871635593 C-44.97109891259523 31.38480744673046, -45.49429839579802 31.334335021825325, -46.457818093061945 31.24138543543225 C-47.253913700645136 31.11267887141184, -48.050009308228326 30.983972307391436, -48.451184304093225 30.919113445218557 C-49.123192068388256 30.7657320582787, -49.795199832683295 30.612350671338845, -50.41980689314947 30.469788185729428 C-50.81372260306751 30.352876070731508, -51.20763831298555 30.23596395573359, -52.355596367744035 29.89525603083607 C-53.012962105371685 29.65333936276683, -53.67032784299933 29.41142269469759, -54.25059815370029 29.197877856399685 C-54.9891100732843 28.870960536777574, -55.727621992868315 28.544043217155462, -56.09702528220308 28.380519338926206 C-56.80442687724241 28.011468379906532, -57.51182847228174 27.642417420886858, -57.88729038812403 27.446539179886773 C-58.317578139345244 27.185696216444974, -58.74786589056645 26.92485325300317, -59.61403688813226 26.399775304092994 C-60.24186149172473 25.961832038715944, -60.8696860953172 25.523888773338893, -61.2701692104733 25.244529088840636 C-61.88753910122815 24.752193029866405, -62.50490899198301 24.259856970892173, -62.84888195219533 23.98554768862774 C-63.36470690773733 23.51708911198493, -63.88053186327933 23.048630535342124, -64.3436878440098 22.628004528078435 C-64.84978916886979 22.10541335846897, -65.35589049372979 21.582822188859502, -65.74844440787244 21.177478043231478 C-66.16496211857655 20.68821263970928, -66.58147982928067 20.19894723618708, -67.05737919774293 19.639928758550113 C-67.30255250289935 19.31141886538811, -67.54772580805576 18.982908972226106, -68.2651135198041 18.021674793848355 C-68.53551998932896 17.606257842354157, -68.8059264588538 17.190840890859956, -69.3666845346684 16.329365901781557 C-69.60896781327095 15.89916740678041, -69.8512510918735 15.468968911779264, -70.3575656507495 14.569956142586314 C-70.56524665645999 14.138702090566843, -70.77292766217046 13.707448038547373, -71.23368512499809 12.750675308355417 C-71.52179802318032 12.039030879561341, -71.80991092136257 11.327386450767266, -71.99144279456745 10.878999214271209 C-72.15274160729795 10.393192889802656, -72.31404042002848 9.907386565334104, -72.62772487065482 8.962618978877522 C-72.75008078384406 8.496022852498696, -72.87243669703331 8.029426726119869, -73.13991673372743 7.009409419623911 C-73.25502313426877 6.418362380590549, -73.3701295348101 5.827315341557188, -73.52591367755518 5.027396693551461 C-73.60519432125159 4.412511676775996, -73.684474964948 3.7976266600005326, -73.78412955789975 3.024725316091999 C-73.8289920927212 2.3259551238616645, -73.87385462754264 1.6271849316313303, -73.91350331032167 1.0096246935071416 C-73.91350331032167 0.2175421174795682, -73.91350331032167 -0.5745404585480052, -73.91350331032167 -1.0096246935071262 C-73.86182136319142 -1.8146127369776242, -73.81013941606118 -2.619600780448122, -73.78412955789975 -3.024725316091956 C-73.73059817954865 -3.4399041156168035, -73.67706680119754 -3.8550829151416512, -73.52591367755518 -5.027396693551446 C-73.42344958411117 -5.5535281575926305, -73.32098549066716 -6.079659621633815, -73.13991673372745 -7.009409419623896 C-72.94666956423973 -7.746344630733655, -72.753422394752 -8.483279841843414, -72.62772487065482 -8.962618978877506 C-72.47214750409059 -9.431193219081852, -72.31657013752637 -9.899767459286197, -71.99144279456746 -10.878999214271168 C-71.71142758328725 -11.570642199859117, -71.43141237200703 -12.262285185447064, -71.23368512499809 -12.750675308355401 C-71.01666571407716 -13.201320758604236, -70.79964630315624 -13.651966208853073, -70.3575656507495 -14.5699561425863 C-70.13346159962299 -14.967875578357361, -69.90935754849646 -15.365795014128421, -69.3666845346684 -16.329365901781546 C-69.05719637736236 -16.804822820610237, -68.74770822005634 -17.280279739438924, -68.26511351980412 -18.021674793848344 C-67.8313950783578 -18.60281799282354, -67.39767663691148 -19.183961191798733, -67.05737919774295 -19.639928758550102 C-66.61845021833686 -20.155519713526953, -66.17952123893077 -20.6711106685038, -65.74844440787246 -21.177478043231467 C-65.39775195503262 -21.539596793174443, -65.04705950219278 -21.901715543117415, -64.34368784400984 -22.628004528078403 C-64.03359189566876 -22.909625463672572, -63.72349594732769 -23.191246399266745, -62.848881952195356 -23.98554768862771 C-62.217535551067066 -24.489029642694202, -61.58618914993877 -24.992511596760693, -61.27016921047331 -25.244529088840626 C-60.64120525873896 -25.68326711415987, -60.0122413070046 -26.12200513947912, -59.614036888132304 -26.39977530409297 C-58.93249734030467 -26.812928583157028, -58.25095779247704 -27.22608186222109, -57.88729038812404 -27.446539179886763 C-57.34221128268171 -27.730906600056198, -56.797132177239384 -28.015274020225633, -56.09702528220309 -28.3805193389262 C-55.39121637475516 -28.692960005176054, -54.68540746730722 -29.00540067142591, -54.2505981537003 -29.19787785639968 C-53.80956023480735 -29.360183887462117, -53.36852231591439 -29.522489918524556, -52.35559636774408 -29.895256030836055 C-51.60823014099661 -30.117070403929326, -50.86086391424914 -30.338884777022596, -50.41980689314951 -30.469788185729417 C-49.682325877669854 -30.63811341499927, -48.94484486219019 -30.806438644269125, -48.45118430409324 -30.919113445218553 C-47.68155401870889 -31.043541301187492, -46.911923733324535 -31.16796915715643, -46.45781809306196 -31.24138543543225 C-45.92221137562348 -31.293054771302216, -45.386604658185 -31.344724107172187, -44.44789942939246 -31.435279871635593 C-43.7486604508496 -31.457703104691358, -43.04942147230674 -31.480126337747123, -42.42968750000001 -31.5 C-42.42968750000001 -31.5, -42.42968750000001 -31.5, -42.4296875 -31.5" stroke="none" stroke-width="0" fill="#cffafe" style="fill:#cffafe !important;stroke:#0891b2 !important;stroke-width:1.5px !important"></path><path d="M-42.4296875 -31.5 C-17.80092348889493 -31.5, 6.827840522210138 -31.5, 42.4296875 -31.5 M-42.4296875 -31.5 C-25.163511700191588 -31.5, -7.897335900383176 -31.5, 42.4296875 -31.5 M42.4296875 -31.5 C42.4296875 -31.5, 42.4296875 -31.5, 42.4296875 -31.5 M42.4296875 -31.5 C42.4296875 -31.5, 42.4296875 -31.5, 42.4296875 -31.5 M42.4296875 -31.5 C42.88640269042564 -31.48535403278524, 43.34311788085129 -31.470708065570477, 44.44789942939246 -31.435279871635593 M42.4296875 -31.5 C43.22509332342732 -31.4744928834062, 44.020499146854654 -31.4489857668124, 44.44789942939246 -31.435279871635593 M44.44789942939246 -31.435279871635593 C44.961178269244265 -31.38576447926321, 45.47445710909608 -31.336249086890827, 46.45781809306194 -31.241385435432253 M44.44789942939246 -31.435279871635593 C44.950870091296906 -31.386758896792394, 45.453840753201355 -31.338237921949194, 46.45781809306194 -31.241385435432253 M46.45781809306194 -31.241385435432253 C47.045094138696655 -31.146439198767787, 47.63237018433137 -31.05149296210332, 48.451184304093225 -30.91911344521856 M46.45781809306194 -31.241385435432253 C46.99152242444775 -31.1551002580727, 47.525226755833565 -31.068815080713147, 48.451184304093225 -30.91911344521856 M48.451184304093225 -30.91911344521856 C49.10606940279414 -30.769640194964726, 49.76095450149505 -30.620166944710896, 50.41980689314948 -30.469788185729428 M48.451184304093225 -30.91911344521856 C49.20663000956699 -30.746687892688108, 49.962075715040754 -30.57426234015766, 50.41980689314948 -30.469788185729428 M50.41980689314948 -30.469788185729428 C51.159616924683995 -30.25021645171208, 51.89942695621851 -30.030644717694738, 52.35559636774405 -29.895256030836062 M50.41980689314948 -30.469788185729428 C50.83223422077076 -30.34738191976665, 51.24466154839203 -30.224975653803877, 52.35559636774405 -29.895256030836062 M52.35559636774405 -29.895256030836062 C52.929732472763305 -29.683968636933, 53.50386857778256 -29.47268124302994, 54.25059815370028 -29.197877856399685 M52.35559636774405 -29.895256030836062 C53.00059100267341 -29.657892042917013, 53.645585637602764 -29.420528054997963, 54.25059815370028 -29.197877856399685 M54.25059815370028 -29.197877856399685 C54.733267482000294 -28.98421446263818, 55.2159368103003 -28.770551068876674, 56.09702528220308 -28.380519338926202 M54.25059815370028 -29.197877856399685 C54.68943107616266 -29.00361953914172, 55.128263998625044 -28.80936122188376, 56.09702528220308 -28.380519338926202 M56.09702528220308 -28.380519338926202 C56.56528781023835 -28.136227077986664, 57.03355033827363 -27.891934817047126, 57.887290388124036 -27.44653917988677 M56.09702528220308 -28.380519338926202 C56.72353152237652 -28.05367143472412, 57.35003776254995 -27.726823530522037, 57.887290388124036 -27.44653917988677 M57.887290388124036 -27.44653917988677 C58.558707061488846 -27.039522446810686, 59.23012373485365 -26.632505713734602, 59.614036888132276 -26.399775304092984 M57.887290388124036 -27.44653917988677 C58.39831423725139 -27.136753519436287, 58.909338086378746 -26.826967858985807, 59.614036888132276 -26.399775304092984 M59.614036888132276 -26.399775304092984 C60.02020934211618 -26.11644698311596, 60.42638179610008 -25.833118662138933, 61.2701692104733 -25.244529088840633 M59.614036888132276 -26.399775304092984 C60.00897191800873 -26.12428572371306, 60.4039069478852 -25.84879614333314, 61.2701692104733 -25.244529088840633 M61.2701692104733 -25.244529088840633 C61.869673571355754 -24.76644031451792, 62.46917793223822 -24.288351540195208, 62.84888195219533 -23.985547688627737 M61.2701692104733 -25.244529088840633 C61.69999842313074 -24.90175172998205, 62.129827635788175 -24.558974371123465, 62.84888195219533 -23.985547688627737 M62.84888195219533 -23.985547688627737 C63.36306234290603 -23.518582662251916, 63.87724273361673 -23.051617635876095, 64.34368784400982 -22.62800452807842 M62.84888195219533 -23.985547688627737 C63.25337616866644 -23.61819674355917, 63.65787038513756 -23.250845798490605, 64.34368784400982 -22.62800452807842 M64.34368784400982 -22.62800452807842 C64.73448884533313 -22.22447040885318, 65.12528984665646 -21.820936289627937, 65.74844440787243 -21.177478043231485 M64.34368784400982 -22.62800452807842 C64.83231906591615 -22.123452674090736, 65.32095028782248 -21.618900820103047, 65.74844440787243 -21.177478043231485 M65.74844440787243 -21.177478043231485 C66.1410043964773 -20.71635474332007, 66.53356438508216 -20.255231443408658, 67.05737919774293 -19.63992875855011 M65.74844440787243 -21.177478043231485 C66.21861776666482 -20.625185662371923, 66.68879112545723 -20.07289328151236, 67.05737919774293 -19.63992875855011 M67.05737919774293 -19.63992875855011 C67.29919634050677 -19.315915817241468, 67.54101348327062 -18.991902875932823, 68.2651135198041 -18.02167479384835 M67.05737919774293 -19.63992875855011 C67.45798332416636 -19.103155724929415, 67.85858745058981 -18.566382691308718, 68.2651135198041 -18.02167479384835 M68.2651135198041 -18.02167479384835 C68.51335432883072 -17.64031024919268, 68.76159513785734 -17.25894570453701, 69.3666845346684 -16.329365901781543 M68.2651135198041 -18.02167479384835 C68.48625593012007 -17.681940666551167, 68.70739834043603 -17.34220653925398, 69.3666845346684 -16.329365901781543 M69.3666845346684 -16.329365901781543 C69.74618812441678 -15.65551884927775, 70.12569171416516 -14.981671796773957, 70.3575656507495 -14.56995614258631 M69.3666845346684 -16.329365901781543 C69.66212403155751 -15.804783158561822, 69.95756352844664 -15.280200415342101, 70.3575656507495 -14.56995614258631 M70.3575656507495 -14.56995614258631 C70.59608782557696 -14.074659743000135, 70.83461000040441 -13.57936334341396, 71.23368512499809 -12.750675308355413 M70.3575656507495 -14.56995614258631 C70.69304963249101 -13.873316476292791, 71.02853361423251 -13.176676809999273, 71.23368512499809 -12.750675308355413 M71.23368512499809 -12.750675308355413 C71.51868469680664 -12.046720855896417, 71.8036842686152 -11.342766403437421, 71.99144279456745 -10.878999214271206 M71.23368512499809 -12.750675308355413 C71.42964814693173 -12.266642855492044, 71.62561116886536 -11.782610402628677, 71.99144279456745 -10.878999214271206 M71.99144279456745 -10.878999214271206 C72.21835610040742 -10.195572490806732, 72.44526940624739 -9.51214576734226, 72.62772487065482 -8.962618978877531 M71.99144279456745 -10.878999214271206 C72.16268276790399 -10.36325169796614, 72.33392274124053 -9.847504181661076, 72.62772487065482 -8.962618978877531 M72.62772487065482 -8.962618978877531 C72.73416644653865 -8.556711117961633, 72.8406080224225 -8.150803257045736, 73.13991673372745 -7.009409419623907 M72.62772487065482 -8.962618978877531 C72.78280748299672 -8.371221764788505, 72.93789009533862 -7.77982455069948, 73.13991673372745 -7.009409419623907 M73.13991673372745 -7.009409419623907 C73.29231636675773 -6.226869513687275, 73.444715999788 -5.444329607750642, 73.52591367755518 -5.027396693551458 M73.13991673372745 -7.009409419623907 C73.28084134066869 -6.285791347406889, 73.42176594760991 -5.5621732751898705, 73.52591367755518 -5.027396693551458 M73.52591367755518 -5.027396693551458 C73.62151229157975 -4.285952721258453, 73.71711090560433 -3.5445087489654488, 73.78412955789975 -3.024725316091981 M73.52591367755518 -5.027396693551458 C73.60651498682647 -4.4022688553721725, 73.68711629609774 -3.7771410171928865, 73.78412955789975 -3.024725316091981 M73.78412955789975 -3.024725316091981 C73.83079530233567 -2.29786867859148, 73.8774610467716 -1.5710120410909787, 73.91350331032167 -1.0096246935071378 M73.78412955789975 -3.024725316091981 C73.82015524986524 -2.4635960843142617, 73.85618094183073 -1.902466852536542, 73.91350331032167 -1.0096246935071378 M73.91350331032167 -1.0096246935071378 C73.91350331032167 -0.4226433069767449, 73.91350331032167 0.164338079553648, 73.91350331032167 1.00962469350713 M73.91350331032167 -1.0096246935071378 C73.91350331032167 -0.5942605536238632, 73.91350331032167 -0.1788964137405885, 73.91350331032167 1.00962469350713 M73.91350331032167 1.00962469350713 C73.87662225219226 1.5840769437268736, 73.83974119406287 2.1585291939466167, 73.78412955789975 3.02472531609196 M73.91350331032167 1.00962469350713 C73.87339921897623 1.6342782876523216, 73.83329512763078 2.258931881797513, 73.78412955789975 3.02472531609196 M73.78412955789975 3.02472531609196 C73.70788028716072 3.616099602822313, 73.63163101642168 4.207473889552666, 73.52591367755518 5.027396693551435 M73.78412955789975 3.02472531609196 C73.68538251905713 3.7905878495469167, 73.58663548021451 4.556450383001874, 73.52591367755518 5.027396693551435 M73.52591367755518 5.027396693551435 C73.40311598390257 5.6579368971558734, 73.28031829024995 6.2884771007603115, 73.13991673372745 7.0094094196239 M73.52591367755518 5.027396693551435 C73.42331623957794 5.554212853588334, 73.32071880160072 6.0810290136252325, 73.13991673372745 7.0094094196239 M73.13991673372745 7.0094094196239 C72.98437142574782 7.602571092713132, 72.8288261177682 8.195732765802363, 72.62772487065482 8.96261897887751 M73.13991673372745 7.0094094196239 C72.9591439819428 7.69877426958497, 72.77837123015816 8.38813911954604, 72.62772487065482 8.96261897887751 M72.62772487065482 8.96261897887751 C72.39229702060358 9.671690152897925, 72.15686917055235 10.380761326918341, 71.99144279456746 10.878999214271184 M72.62772487065482 8.96261897887751 C72.44564114627994 9.511026145592947, 72.26355742190506 10.059433312308386, 71.99144279456746 10.878999214271184 M71.99144279456746 10.878999214271184 C71.81311316068127 11.31947685773901, 71.63478352679506 11.759954501206836, 71.23368512499809 12.750675308355405 M71.99144279456746 10.878999214271184 C71.71536681661972 11.560912217368024, 71.43929083867198 12.242825220464864, 71.23368512499809 12.750675308355405 M71.23368512499809 12.750675308355405 C70.90828821019839 13.426368964315596, 70.58289129539871 14.102062620275788, 70.3575656507495 14.569956142586303 M71.23368512499809 12.750675308355405 C70.97949584453053 13.278504788025602, 70.72530656406299 13.8063342676958, 70.3575656507495 14.569956142586303 M70.3575656507495 14.569956142586303 C70.07421154195613 15.073080055463778, 69.79085743316277 15.576203968341252, 69.36668453466841 16.329365901781536 M70.3575656507495 14.569956142586303 C70.07200068488959 15.07700565605898, 69.78643571902968 15.584055169531657, 69.36668453466841 16.329365901781536 M69.36668453466841 16.329365901781536 C68.94805649966571 16.972490980912987, 68.52942846466303 17.615616060044434, 68.26511351980412 18.021674793848334 M69.36668453466841 16.329365901781536 C69.09075440137917 16.75326868412923, 68.81482426808994 17.177171466476924, 68.26511351980412 18.021674793848334 M68.26511351980412 18.021674793848334 C67.91345467669963 18.49286560682869, 67.56179583359513 18.964056419809047, 67.05737919774295 19.639928758550102 M68.26511351980412 18.021674793848334 C67.87894682676102 18.53910298201661, 67.49278013371793 19.056531170184886, 67.05737919774295 19.639928758550102 M67.05737919774295 19.639928758550102 C66.73570050208558 20.017790858505563, 66.41402180642821 20.395652958461024, 65.74844440787246 21.177478043231467 M67.05737919774295 19.639928758550102 C66.59629408292709 20.181545570899083, 66.13520896811124 20.723162383248063, 65.74844440787246 21.177478043231467 M65.74844440787246 21.177478043231467 C65.3848248609091 21.55294507919113, 65.02120531394576 21.92841211515079, 64.34368784400982 22.628004528078414 M65.74844440787246 21.177478043231467 C65.26048779223929 21.681333310855905, 64.77253117660612 22.185188578480343, 64.34368784400982 22.628004528078414 M64.34368784400982 22.628004528078414 C64.03050245986171 22.912431207530553, 63.71731707571359 23.19685788698269, 62.848881952195356 23.985547688627715 M64.34368784400982 22.628004528078414 C64.01846410438056 22.923364123461095, 63.6932403647513 23.21872371884378, 62.848881952195356 23.985547688627715 M62.848881952195356 23.985547688627715 C62.31168513587136 24.413947854238458, 61.77448831954735 24.842348019849197, 61.27016921047331 25.24452908884063 M62.848881952195356 23.985547688627715 C62.31268872583837 24.41314751794641, 61.776495499481385 24.840747347265108, 61.27016921047331 25.24452908884063 M61.27016921047331 25.24452908884063 C60.86888229113361 25.524449472341246, 60.467595371793905 25.804369855841863, 59.6140368881323 26.399775304092973 M61.27016921047331 25.24452908884063 C60.871353248736696 25.522725839283364, 60.47253728700008 25.8009225897261, 59.6140368881323 26.399775304092973 M59.6140368881323 26.399775304092973 C59.04085912513371 26.74723903238914, 58.46768136213511 27.094702760685305, 57.88729038812404 27.446539179886766 M59.6140368881323 26.399775304092973 C59.22452001413161 26.635902722167422, 58.83500314013092 26.872030140241872, 57.88729038812404 27.446539179886766 M57.88729038812404 27.446539179886766 C57.30005648297282 27.752898732062892, 56.7128225778216 28.059258284239014, 56.097025282203084 28.3805193389262 M57.88729038812404 27.446539179886766 C57.48929245205161 27.654174448205907, 57.09129451597918 27.861809716525052, 56.097025282203084 28.3805193389262 M56.097025282203084 28.3805193389262 C55.37020942332942 28.702259159423154, 54.64339356445575 29.02399897992011, 54.250598153700295 29.197877856399682 M56.097025282203084 28.3805193389262 C55.546877168399305 28.62405358934317, 54.99672905459553 28.867587839760144, 54.250598153700295 29.197877856399682 M54.250598153700295 29.197877856399682 C53.71519276967367 29.394911986954597, 53.179787385647046 29.59194611750951, 52.35559636774407 29.895256030836055 M54.250598153700295 29.197877856399682 C53.535896706567904 29.460894595572157, 52.82119525943552 29.723911334744628, 52.35559636774407 29.895256030836055 M52.35559636774407 29.895256030836055 C51.5945651880666 30.12112609023015, 50.83353400838914 30.346996149624243, 50.41980689314951 30.46978818572942 M52.35559636774407 29.895256030836055 C51.6231000521169 30.11265709236258, 50.89060373648972 30.330058153889105, 50.41980689314951 30.46978818572942 M50.41980689314951 30.46978818572942 C49.830141500551946 30.60437546366352, 49.240476107954386 30.73896274159762, 48.45118430409324 30.919113445218557 M50.41980689314951 30.46978818572942 C49.77049813523905 30.617988672586858, 49.12118937732859 30.766189159444295, 48.45118430409324 30.919113445218557 M48.45118430409324 30.919113445218557 C47.76068989319613 31.030747226708268, 47.07019548229902 31.142381008197983, 46.45781809306196 31.24138543543225 M48.45118430409324 30.919113445218557 C47.82443643473719 31.020441180233725, 47.197688565381135 31.121768915248893, 46.45781809306196 31.24138543543225 M46.45781809306196 31.24138543543225 C45.81527311240203 31.303370976943114, 45.17272813174211 31.365356518453975, 44.44789942939246 31.435279871635593 M46.45781809306196 31.24138543543225 C45.703500785058466 31.314153518936056, 44.94918347705498 31.386921602439863, 44.44789942939246 31.435279871635593 M44.44789942939246 31.435279871635593 C43.995967462657475 31.449772450176575, 43.544035495922486 31.46426502871756, 42.42968750000001 31.5 M44.44789942939246 31.435279871635593 C43.70691041121212 31.45904194720101, 42.96592139303179 31.482804022766423, 42.42968750000001 31.5 M42.42968750000001 31.5 C42.42968750000001 31.5, 42.42968750000001 31.5, 42.4296875 31.5 M42.42968750000001 31.5 C42.42968750000001 31.5, 42.42968750000001 31.5, 42.4296875 31.5 M42.4296875 31.5 C8.710820885597911 31.5, -25.008045728804177 31.5, -42.42968749999999 31.5 M42.4296875 31.5 C12.086881035330695 31.5, -18.25592542933861 31.5, -42.42968749999999 31.5 M-42.42968749999999 31.5 C-43.14527045487629 31.477052647434842, -43.860853409752586 31.454105294869684, -44.44789942939244 31.435279871635593 M-42.42968749999999 31.5 C-43.17539243129913 31.476086694279832, -43.92109736259827 31.452173388559665, -44.44789942939244 31.435279871635593 M-44.44789942939244 31.435279871635593 C-44.908609662483514 31.390835709534418, -45.36931989557458 31.346391547433242, -46.457818093061945 31.24138543543225 M-44.44789942939244 31.435279871635593 C-44.907310699439435 31.39096101893705, -45.36672196948643 31.346642166238507, -46.457818093061945 31.24138543543225 M-46.457818093061945 31.24138543543225 C-47.138882439992756 31.13127623355337, -47.819946786923566 31.02116703167449, -48.451184304093225 30.919113445218557 M-46.457818093061945 31.24138543543225 C-47.02246884922574 31.150097080107702, -47.58711960538953 31.05880872478315, -48.451184304093225 30.919113445218557 M-48.451184304093225 30.919113445218557 C-49.175256442519505 30.753848704635036, -49.899328580945784 30.58858396405152, -50.41980689314947 30.469788185729428 M-48.451184304093225 30.919113445218557 C-48.94669982227309 30.80601526173495, -49.44221534045296 30.69291707825134, -50.41980689314947 30.469788185729428 M-50.41980689314947 30.469788185729428 C-50.8750460857944 30.3346755829517, -51.33028527843933 30.19956298017397, -52.355596367744035 29.89525603083607 M-50.41980689314947 30.469788185729428 C-51.17528998485748 30.245564769722165, -51.930773076565494 30.0213413537149, -52.355596367744035 29.89525603083607 M-52.355596367744035 29.89525603083607 C-52.956198933833015 29.674228734606064, -53.556801499921995 29.45320143837606, -54.25059815370029 29.197877856399685 M-52.355596367744035 29.89525603083607 C-53.05432979282088 29.638115671386814, -53.753063217897726 29.380975311937558, -54.25059815370029 29.197877856399685 M-54.25059815370029 29.197877856399685 C-54.65990610645435 29.016689367404485, -55.06921405920841 28.835500878409285, -56.09702528220308 28.380519338926206 M-54.25059815370029 29.197877856399685 C-54.914519617228045 28.903979519026414, -55.57844108075581 28.610081181653143, -56.09702528220308 28.380519338926206 M-56.09702528220308 28.380519338926206 C-56.745629006738234 28.042143191286726, -57.39423273127339 27.70376704364725, -57.88729038812403 27.446539179886773 M-56.09702528220308 28.380519338926206 C-56.808457188658394 28.009365769022352, -57.519889095113705 27.6382121991185, -57.88729038812403 27.446539179886773 M-57.88729038812403 27.446539179886773 C-58.55426276556006 27.0422166051203, -59.221235142996086 26.63789403035382, -59.61403688813226 26.399775304092994 M-57.88729038812403 27.446539179886773 C-58.48248631360494 27.08572791210074, -59.07768223908585 26.72491664431471, -59.61403688813226 26.399775304092994 M-59.61403688813226 26.399775304092994 C-60.25841030964845 25.95028829971914, -60.90278373116463 25.50080129534529, -61.2701692104733 25.244529088840636 M-59.61403688813226 26.399775304092994 C-60.2524167956757 25.95446911561149, -60.89079670321914 25.509162927129985, -61.2701692104733 25.244529088840636 M-61.2701692104733 25.244529088840636 C-61.771030262628685 24.845105728219075, -62.271891314784064 24.445682367597517, -62.84888195219533 23.98554768862774 M-61.2701692104733 25.244529088840636 C-61.652232769850734 24.939843567375437, -62.03429632922817 24.63515804591024, -62.84888195219533 23.98554768862774 M-62.84888195219533 23.98554768862774 C-63.27403116276554 23.599438424419574, -63.69918037333574 23.213329160211405, -64.3436878440098 22.628004528078435 M-62.84888195219533 23.98554768862774 C-63.234922758060094 23.63495564282137, -63.62096356392486 23.284363597015, -64.3436878440098 22.628004528078435 M-64.3436878440098 22.628004528078435 C-64.84482728787647 22.11053690797258, -65.34596673174313 21.593069287866726, -65.74844440787244 21.177478043231478 M-64.3436878440098 22.628004528078435 C-64.87449985471177 22.07989754655209, -65.40531186541374 21.531790565025744, -65.74844440787244 21.177478043231478 M-65.74844440787244 21.177478043231478 C-66.06230515427657 20.80879935132279, -66.37616590068069 20.440120659414102, -67.05737919774293 19.639928758550113 M-65.74844440787244 21.177478043231478 C-66.19211169169215 20.656321206273223, -66.63577897551187 20.135164369314968, -67.05737919774293 19.639928758550113 M-67.05737919774293 19.639928758550113 C-67.37706621478016 19.211577279806622, -67.69675323181738 18.783225801063132, -68.2651135198041 18.021674793848355 M-67.05737919774293 19.639928758550113 C-67.38527389231079 19.200579739650376, -67.71316858687865 18.761230720750635, -68.2651135198041 18.021674793848355 M-68.2651135198041 18.021674793848355 C-68.69367370192225 17.36329126959264, -69.12223388404038 16.70490774533693, -69.3666845346684 16.329365901781557 M-68.2651135198041 18.021674793848355 C-68.63738637520882 17.44976371868802, -69.00965923061354 16.87785264352768, -69.3666845346684 16.329365901781557 M-69.3666845346684 16.329365901781557 C-69.70545151588878 15.727850822748126, -70.04421849710917 15.126335743714696, -70.3575656507495 14.569956142586314 M-69.3666845346684 16.329365901781557 C-69.7203649276388 15.701370550039277, -70.0740453206092 15.073375198296995, -70.3575656507495 14.569956142586314 M-70.3575656507495 14.569956142586314 C-70.679530196045 13.901389875342561, -71.00149474134047 13.23282360809881, -71.23368512499809 12.750675308355417 M-70.3575656507495 14.569956142586314 C-70.53454942930931 14.202445539560667, -70.71153320786911 13.83493493653502, -71.23368512499809 12.750675308355417 M-71.23368512499809 12.750675308355417 C-71.51948420909925 12.044746045076183, -71.80528329320039 11.33881678179695, -71.99144279456745 10.878999214271209 M-71.23368512499809 12.750675308355417 C-71.50680087521948 12.076074124974776, -71.77991662544086 11.401472941594132, -71.99144279456745 10.878999214271209 M-71.99144279456745 10.878999214271209 C-72.17290554988197 10.332462307427555, -72.35436830519652 9.7859254005839, -72.62772487065482 8.962618978877522 M-71.99144279456745 10.878999214271209 C-72.1518180670187 10.395974445977641, -72.31219333946994 9.912949677684075, -72.62772487065482 8.962618978877522 M-72.62772487065482 8.962618978877522 C-72.74834174288972 8.502654569362688, -72.86895861512464 8.042690159847853, -73.13991673372743 7.009409419623911 M-72.62772487065482 8.962618978877522 C-72.78447512673974 8.364862316434966, -72.94122538282465 7.7671056539924095, -73.13991673372743 7.009409419623911 M-73.13991673372743 7.009409419623911 C-73.21744598329605 6.611313108901777, -73.29497523286467 6.213216798179644, -73.52591367755518 5.027396693551461 M-73.13991673372743 7.009409419623911 C-73.28411420645612 6.2689858733087425, -73.42831167918482 5.5285623269935735, -73.52591367755518 5.027396693551461 M-73.52591367755518 5.027396693551461 C-73.58651188983708 4.55740892556354, -73.64711010211899 4.087421157575618, -73.78412955789975 3.024725316091999 M-73.52591367755518 5.027396693551461 C-73.57897817679643 4.615838916206999, -73.63204267603766 4.204281138862537, -73.78412955789975 3.024725316091999 M-73.78412955789975 3.024725316091999 C-73.81559119510136 2.5346849213002605, -73.84705283230299 2.0446445265085225, -73.91350331032167 1.0096246935071416 M-73.78412955789975 3.024725316091999 C-73.81239808518076 2.5844201857457256, -73.84066661246177 2.144115055399452, -73.91350331032167 1.0096246935071416 M-73.91350331032167 1.0096246935071416 C-73.91350331032167 0.2716750268120486, -73.91350331032167 -0.4662746398830444, -73.91350331032167 -1.0096246935071262 M-73.91350331032167 1.0096246935071416 C-73.91350331032167 0.2971513241798608, -73.91350331032167 -0.41532204514742, -73.91350331032167 -1.0096246935071262 M-73.91350331032167 -1.0096246935071262 C-73.8713242523685 -1.6665975674506406, -73.82914519441532 -2.3235704413941547, -73.78412955789975 -3.024725316091956 M-73.91350331032167 -1.0096246935071262 C-73.8838374347454 -1.4716946514712634, -73.85417155916913 -1.9337646094354008, -73.78412955789975 -3.024725316091956 M-73.78412955789975 -3.024725316091956 C-73.70994914685839 -3.600053935549654, -73.63576873581704 -4.175382555007353, -73.52591367755518 -5.027396693551446 M-73.78412955789975 -3.024725316091956 C-73.71424138311095 -3.5667641987728294, -73.64435320832213 -4.108803081453702, -73.52591367755518 -5.027396693551446 M-73.52591367755518 -5.027396693551446 C-73.42999386425409 -5.519924662192878, -73.33407405095298 -6.01245263083431, -73.13991673372745 -7.009409419623896 M-73.52591367755518 -5.027396693551446 C-73.41005750505738 -5.62229365311689, -73.2942013325596 -6.2171906126823355, -73.13991673372745 -7.009409419623896 M-73.13991673372745 -7.009409419623896 C-72.946396716853 -7.747385116072036, -72.75287669997854 -8.485360812520176, -72.62772487065482 -8.962618978877506 M-73.13991673372745 -7.009409419623896 C-72.94323218007105 -7.759452866340507, -72.74654762641465 -8.509496313057118, -72.62772487065482 -8.962618978877506 M-72.62772487065482 -8.962618978877506 C-72.42951665979108 -9.559590529809368, -72.23130844892734 -10.15656208074123, -71.99144279456746 -10.878999214271168 M-72.62772487065482 -8.962618978877506 C-72.47958352682551 -9.408797103373628, -72.33144218299618 -9.85497522786975, -71.99144279456746 -10.878999214271168 M-71.99144279456746 -10.878999214271168 C-71.75929986072065 -11.452396749051083, -71.52715692687384 -12.025794283830997, -71.23368512499809 -12.750675308355401 M-71.99144279456746 -10.878999214271168 C-71.70543154787943 -11.585452523241871, -71.41942030119141 -12.291905832212574, -71.23368512499809 -12.750675308355401 M-71.23368512499809 -12.750675308355401 C-71.04387218682065 -13.14482593582712, -70.85405924864321 -13.53897656329884, -70.3575656507495 -14.5699561425863 M-71.23368512499809 -12.750675308355401 C-71.0284947051513 -13.176757605538908, -70.82330428530453 -13.602839902722414, -70.3575656507495 -14.5699561425863 M-70.3575656507495 -14.5699561425863 C-70.06071210689447 -15.097049669381791, -69.76385856303943 -15.62414319617728, -69.3666845346684 -16.329365901781546 M-70.3575656507495 -14.5699561425863 C-70.0014858721477 -15.202211846481267, -69.6454060935459 -15.834467550376235, -69.3666845346684 -16.329365901781546 M-69.3666845346684 -16.329365901781546 C-69.10672811283327 -16.72872877379363, -68.84677169099812 -17.128091645805714, -68.26511351980412 -18.021674793848344 M-69.3666845346684 -16.329365901781546 C-68.96433973237826 -16.947475562806304, -68.56199493008812 -17.56558522383106, -68.26511351980412 -18.021674793848344 M-68.26511351980412 -18.021674793848344 C-67.88687241844242 -18.5284834111998, -67.50863131708073 -19.03529202855126, -67.05737919774295 -19.639928758550102 M-68.26511351980412 -18.021674793848344 C-67.97259793192325 -18.41361903289045, -67.68008234404236 -18.805563271932552, -67.05737919774295 -19.639928758550102 M-67.05737919774295 -19.639928758550102 C-66.62567619795693 -20.14703166669532, -66.19397319817092 -20.65413457484054, -65.74844440787246 -21.177478043231467 M-67.05737919774295 -19.639928758550102 C-66.67232788920943 -20.092231935593713, -66.28727658067591 -20.54453511263732, -65.74844440787246 -21.177478043231467 M-65.74844440787246 -21.177478043231467 C-65.43856372252601 -21.497455292529086, -65.12868303717957 -21.817432541826705, -64.34368784400984 -22.628004528078403 M-65.74844440787246 -21.177478043231467 C-65.37282574916358 -21.56533514721378, -64.99720709045471 -21.953192251196093, -64.34368784400984 -22.628004528078403 M-64.34368784400984 -22.628004528078403 C-63.98670919490621 -22.952203092056838, -63.62973054580259 -23.276401656035272, -62.848881952195356 -23.98554768862771 M-64.34368784400984 -22.628004528078403 C-63.8102163017939 -23.112489267835382, -63.27674475957796 -23.59697400759236, -62.848881952195356 -23.98554768862771 M-62.848881952195356 -23.98554768862771 C-62.35308323835071 -24.380933969160935, -61.85728452450608 -24.77632024969416, -61.27016921047331 -25.244529088840626 M-62.848881952195356 -23.98554768862771 C-62.45991641998175 -24.295737349760543, -62.07095088776814 -24.605927010893378, -61.27016921047331 -25.244529088840626 M-61.27016921047331 -25.244529088840626 C-60.9111680113888 -25.494952784410547, -60.5521668123043 -25.745376479980468, -59.614036888132304 -26.39977530409297 M-61.27016921047331 -25.244529088840626 C-60.83408331546679 -25.54872373134304, -60.39799742046028 -25.852918373845448, -59.614036888132304 -26.39977530409297 M-59.614036888132304 -26.39977530409297 C-59.03754912017018 -26.749245576849773, -58.46106135220806 -27.098715849606577, -57.88729038812404 -27.446539179886763 M-59.614036888132304 -26.39977530409297 C-59.12917881671816 -26.693699116326524, -58.64432074530401 -26.98762292856008, -57.88729038812404 -27.446539179886763 M-57.88729038812404 -27.446539179886763 C-57.33062679397565 -27.736950220393933, -56.77396319982725 -28.027361260901102, -56.09702528220309 -28.3805193389262 M-57.88729038812404 -27.446539179886763 C-57.22015122612152 -27.79458525338045, -56.553012064119 -28.142631326874138, -56.09702528220309 -28.3805193389262 M-56.09702528220309 -28.3805193389262 C-55.68149878731652 -28.564460592056964, -55.26597229242995 -28.748401845187725, -54.2505981537003 -29.19787785639968 M-56.09702528220309 -28.3805193389262 C-55.610510585521105 -28.595884963201605, -55.12399588883912 -28.811250587477012, -54.2505981537003 -29.19787785639968 M-54.2505981537003 -29.19787785639968 C-53.72217219806495 -29.392343492789475, -53.193746242429604 -29.58680912917927, -52.35559636774408 -29.895256030836055 M-54.2505981537003 -29.19787785639968 C-53.701896275577205 -29.39980521969354, -53.15319439745411 -29.6017325829874, -52.35559636774408 -29.895256030836055 M-52.35559636774408 -29.895256030836055 C-51.64374142445046 -30.10653084140275, -50.931886481156845 -30.31780565196945, -50.41980689314951 -30.469788185729417 M-52.35559636774408 -29.895256030836055 C-51.625334562818246 -30.111993901315607, -50.89507275789241 -30.32873177179516, -50.41980689314951 -30.469788185729417 M-50.41980689314951 -30.469788185729417 C-49.65907306771681 -30.643420717132287, -48.898339242284116 -30.817053248535153, -48.45118430409324 -30.919113445218553 M-50.41980689314951 -30.469788185729417 C-49.81316160410582 -30.608251014223164, -49.20651631506214 -30.746713842716915, -48.45118430409324 -30.919113445218553 M-48.45118430409324 -30.919113445218553 C-47.86646482636738 -31.013646355809996, -47.28174534864152 -31.108179266401443, -46.45781809306196 -31.24138543543225 M-48.45118430409324 -30.919113445218553 C-48.05082860354855 -30.98383985007779, -47.650472903003866 -31.04856625493703, -46.45781809306196 -31.24138543543225 M-46.45781809306196 -31.24138543543225 C-46.04494826820746 -31.28121449088735, -45.63207844335297 -31.32104354634245, -44.44789942939246 -31.435279871635593 M-46.45781809306196 -31.24138543543225 C-45.966388476884184 -31.288793059474337, -45.47495886070641 -31.33620068351642, -44.44789942939246 -31.435279871635593 M-44.44789942939246 -31.435279871635593 C-43.98804544659379 -31.45002649381247, -43.52819146379512 -31.464773115989345, -42.42968750000001 -31.5 M-44.44789942939246 -31.435279871635593 C-43.94880382023396 -31.451284896390636, -43.44970821107547 -31.467289921145678, -42.42968750000001 -31.5 M-42.42968750000001 -31.5 C-42.42968750000001 -31.5, -42.4296875 -31.5, -42.4296875 -31.5 M-42.42968750000001 -31.5 C-42.42968750000001 -31.5, -42.42968750000001 -31.5, -42.4296875 -31.5" stroke="#0891b2" stroke-width="1.5" fill="none" stroke-dasharray="0 0" style="fill:#cffafe !important;stroke:#0891b2 !important;stroke-width:1.5px !important"></path></g><g class="label" style="color:#155e75 !important" transform="translate(-58.5546875, -24)"><rect></rect><foreignObject width="117.109375" height="48"><div style="color: rgb(21, 94, 117) !important; display: table-cell; white-space: nowrap; line-height: 1.5; max-width: 200px; text-align: center;" xmlns="http://www.w3.org/1999/xhtml"><span style="color:#155e75 !important" class="nodeLabel"><p>Input:<br/>args / files / API</p></span></div></foreignObject></g></g><g class="node default app" id="container-flowchart-read-1" data-look="classic" transform="translate(272.40513610839844, 47)"><rect class="basic label-container" style="fill:#d1fae5 !important;stroke:#059669 !important;stroke-width:1.5px !important" x="-66.578125" y="-27" width="133.15625" height="54"></rect><g class="label" style="color:#065f46 !important" transform="translate(-36.578125, -12)"><rect></rect><foreignObject width="73.15625" height="24"><div style="color: rgb(6, 95, 70) !important; display: table-cell; white-space: nowrap; line-height: 1.5; max-width: 200px; text-align: center;" xmlns="http://www.w3.org/1999/xhtml"><span style="color:#065f46 !important" class="nodeLabel"><p>Read data</p></span></div></foreignObject></g></g><g class="node default app" id="container-flowchart-parse-3" data-look="classic" transform="translate(475.78794860839844, 47)"><rect class="basic label-container" style="fill:#d1fae5 !important;stroke:#059669 !important;stroke-width:1.5px !important" x="-86.8046875" y="-27" width="173.609375" height="54"></rect><g class="label" style="color:#065f46 !important" transform="translate(-56.8046875, -12)"><rect></rect><foreignObject width="113.609375" height="24"><div style="color: rgb(6, 95, 70) !important; display: table-cell; white-space: nowrap; line-height: 1.5; max-width: 200px; text-align: center;" xmlns="http://www.w3.org/1999/xhtml"><span style="color:#065f46 !important" class="nodeLabel"><p>Parse + validate</p></span></div></foreignObject></g></g><g class="node default app" id="container-flowchart-transform-5" data-look="classic" transform="translate(719.4207611083984, 47)"><rect class="basic label-container" style="fill:#d1fae5 !important;stroke:#059669 !important;stroke-width:1.5px !important" x="-106.828125" y="-27" width="213.65625" height="54"></rect><g class="label" style="color:#065f46 !important" transform="translate(-76.828125, -12)"><rect></rect><foreignObject width="153.65625" height="24"><div style="color: rgb(6, 95, 70) !important; display: table-cell; white-space: nowrap; line-height: 1.5; max-width: 200px; text-align: center;" xmlns="http://www.w3.org/1999/xhtml"><span style="color:#065f46 !important" class="nodeLabel"><p>Transform / compute</p></span></div></foreignObject></g></g><g class="node default ext" id="container-flowchart-out-7" data-look="classic" transform="translate(989.8348236083984, 47)"><rect class="basic label-container" style="fill:#e2e8f0 !important;stroke:#475569 !important;stroke-width:1.5px !important" x="-113.5859375" y="-39" width="227.171875" height="78"></rect><g class="label" style="color:#1e293b !important" transform="translate(-83.5859375, -24)"><rect></rect><foreignObject width="167.171875" height="48"><div style="color: rgb(30, 41, 59) !important; display: table-cell; white-space: nowrap; line-height: 1.5; max-width: 200px; text-align: center;" xmlns="http://www.w3.org/1999/xhtml"><span style="color:#1e293b !important" class="nodeLabel"><p>Output:<br/>report / file / exit code</p></span></div></foreignObject></g></g></g></g></g><defs><filter id="container-drop-shadow" height="130%" width="130%"><feDropShadow dx="4" dy="4" stdDeviation="0" flood-opacity="0.06" flood-color="#000000"></feDropShadow></filter></defs><defs><filter id="container-drop-shadow-small" height="150%" width="150%"><feDropShadow dx="2" dy="2" stdDeviation="0" flood-opacity="0.06" flood-color="#000000"></feDropShadow></filter></defs><linearGradient id="container-gradient" gradientUnits="objectBoundingBox" x1="0%" y1="0%" x2="100%" y2="0%"><stop offset="0%" stop-color="hsl(40.5882352941, 60%, 83.3333333333%)" stop-opacity="1"></stop><stop offset="100%" stop-color="hsl(-79.4117647059, 60%, 83.3333333333%)" stop-opacity="1"></stop></linearGradient></svg>